<?xml version="1.0" standalone="no"?><!DOCTYPE svg PUBLIC "-//W3C//DTD SVG 1.1//EN" "http://www.w3.org/Graphics/SVG/1.1/DTD/svg11.dtd"><svg t="1631957115346" class="icon" viewBox="0 0 1024 1024" version="1.1" xmlns="http://www.w3.org/2000/svg" p-id="8721" xmlns:xlink="http://www.w3.org/1999/xlink" width="200" height="200"><defs><style type="text/css"></style></defs><path d="M512 512m-469.341091 0a469.341091 469.341091 0 1 0 938.682182 0 469.341091 469.341091 0 1 0-938.682182 0Z" fill="#5562F2" p-id="8722"></path><path d="M722.106182 356.421818l30.184727 30.161455a21.341091 21.341091 0 0 1 0 30.184727L501.294545 667.810909a21.317818 21.317818 0 0 1-3.956363 5.399273l-30.138182 30.161454a21.341091 21.341091 0 0 1-30.184727 0l-165.934546-165.934545a21.341091 21.341091 0 0 1 0-30.161455l30.184728-30.184727a21.341091 21.341091 0 0 1 30.161454 0l119.924364 119.901091 240.593454-240.570182a21.341091 21.341091 0 0 1 30.161455 0z" fill="#FFFFFF" p-id="8723"></path></svg>